<svg width="21" height="21" viewBox="0 0 21 21" fill="none" xmlns="http://www.w3.org/2000/svg">
<path fill-rule="evenodd" clip-rule="evenodd" d="M20.5756 4.51906C20.4331 4.34851 20.2223 4.24996 20 4.25H4.87625L4.41781 1.73187C4.28823 1.01862 3.66711 0.500105 2.94219 0.5H1.25C0.835786 0.5 0.5 0.835786 0.5 1.25C0.5 1.66421 0.835786 2 1.25 2H2.9375L5.33375 15.1522C5.40434 15.5422 5.57671 15.9067 5.83344 16.2087C4.84996 17.1273 4.72046 18.6409 5.5336 19.7132C6.34675 20.7855 7.83911 21.0692 8.98899 20.37C10.1389 19.6709 10.5738 18.2154 9.99594 17H14.2541C14.0863 17.3513 13.9995 17.7357 14 18.125C14 19.5747 15.1753 20.75 16.625 20.75C18.0747 20.75 19.25 19.5747 19.25 18.125C19.25 16.6753 18.0747 15.5 16.625 15.5H7.54719C7.18472 15.4999 6.87417 15.2407 6.80937 14.8841L6.51219 13.25H17.3872C18.4746 13.2498 19.4063 12.4721 19.6006 11.4022L20.7406 5.13406C20.7797 4.91473 20.7192 4.68938 20.5756 4.51906ZM8.75 18.125C8.75 18.7463 8.24632 19.25 7.625 19.25C7.00368 19.25 6.5 18.7463 6.5 18.125C6.5 17.5037 7.00368 17 7.625 17C8.24632 17 8.75 17.5037 8.75 18.125ZM17.75 18.125C17.75 18.7463 17.2463 19.25 16.625 19.25C16.0037 19.25 15.5 18.7463 15.5 18.125C15.5 17.5037 16.0037 17 16.625 17C17.2463 17 17.75 17.5037 17.75 18.125ZM18.125 11.1341C18.06 11.4917 17.7479 11.7513 17.3844 11.75H6.23938L5.14906 5.75H19.1009L18.125 11.1341Z" fill="#876363"/>
</svg>
