<svg width="22" height="18" viewBox="0 0 22 18" fill="none" xmlns="http://www.w3.org/2000/svg">
<path fill-rule="evenodd" clip-rule="evenodd" d="M15.4375 0C13.5016 0 11.8066 0.8325 10.75 2.23969C9.69344 0.8325 7.99844 0 6.0625 0C2.85384 0.00361655 0.253617 2.60384 0.25 5.8125C0.25 12.375 9.98031 17.6869 10.3947 17.9062C10.6165 18.0256 10.8835 18.0256 11.1053 17.9062C11.5197 17.6869 21.25 12.375 21.25 5.8125C21.2464 2.60384 18.6462 0.00361655 15.4375 0V0ZM10.75 16.3875C9.03813 15.39 1.75 10.8459 1.75 5.8125C1.7531 3.43206 3.68206 1.5031 6.0625 1.5C7.88594 1.5 9.41687 2.47125 10.0562 4.03125C10.1718 4.31259 10.4459 4.49627 10.75 4.49627C11.0541 4.49627 11.3282 4.31259 11.4438 4.03125C12.0831 2.46844 13.6141 1.5 15.4375 1.5C17.8179 1.5031 19.7469 3.43206 19.75 5.8125C19.75 10.8384 12.46 15.3891 10.75 16.3875V16.3875Z" fill="#82696B"/>
</svg>
